<?xml version="1.0" ?>

<!-- Uploaded to: SVG Repo, www.svgrepo.com, Generator: SVG Repo Mixer Tools -->
<svg fill="#fccb06" width="800px" height="800px" viewBox="0 0 512 512" version="1.1" xml:space="preserve" xmlns="http://www.w3.org/2000/svg" xmlns:xlink="http://www.w3.org/1999/xlink">

<g id="_x31_1_x2C__Computer_x2C__hacking_x2C__virus_x2C__error_x2C__laptop">

<g id="XMLID_858_">

<g id="XMLID_165_">

<path d="M256,234.635c-8.973,0-16.273-7.3-16.273-16.273v-45.092c0-8.973,7.3-16.273,16.273-16.273     c8.974,0,16.273,7.3,16.273,16.273v45.092C272.273,227.335,264.974,234.635,256,234.635z M256,166.998     c-3.459,0-6.273,2.814-6.273,6.273v45.092c0,3.459,2.814,6.273,6.273,6.273s6.273-2.814,6.273-6.273v-45.092     C262.273,169.812,259.459,166.998,256,166.998z" id="XMLID_635_"/>

</g>

<g id="XMLID_164_">

<path d="M256,274.091c-8.973,0-16.273-7.3-16.273-16.273c0-8.973,7.3-16.273,16.273-16.273     c8.974,0,16.273,7.3,16.273,16.273C272.273,266.791,264.974,274.091,256,274.091z M256,251.544c-3.459,0-6.273,2.814-6.273,6.273     s2.814,6.273,6.273,6.273s6.273-2.814,6.273-6.273S259.459,251.544,256,251.544z" id="XMLID_632_"/>

</g>

<g id="XMLID_163_">

<path d="M325.676,291H186.325c-8.624,0-16.346-4.459-20.658-11.927c-4.312-7.469-4.312-16.386,0-23.854l0,0     l69.675-120.681c4.312-7.468,12.035-11.927,20.658-11.927c8.624,0,16.347,4.459,20.658,11.927l69.675,120.681     c4.313,7.468,4.313,16.386,0.001,23.854C342.022,286.541,334.3,291,325.676,291z M169.997,257.719l4.33,2.5     c-2.504,4.338-2.504,9.517,0,13.854c2.504,4.337,6.99,6.927,11.998,6.927h139.351c5.009,0,9.493-2.59,11.998-6.927     c2.504-4.338,2.504-9.517-0.001-13.854l-69.675-120.681c-2.504-4.337-6.989-6.927-11.998-6.927c-5.008,0-9.494,2.59-11.998,6.927     l-69.675,120.681L169.997,257.719z" id="XMLID_629_"/>

</g>

<g id="XMLID_162_">

<path d="M450,426H62c-17.093,0-31-13.906-31-31v-18c0-17.094,13.907-31,31-31h144c2.761,0,5,2.238,5,5v15h90v-15     c0-2.762,2.238-5,5-5h144c17.094,0,31,13.906,31,31v18C481,412.094,467.094,426,450,426z M62,356c-11.58,0-21,9.421-21,21v18     c0,11.579,9.42,21,21,21h388c11.579,0,21-9.421,21-21v-18c0-11.579-9.421-21-21-21H311v15c0,2.762-2.238,5-5,5H206     c-2.761,0-5-2.238-5-5v-15H62z" id="XMLID_626_"/>

</g>

<g id="XMLID_161_">

<path d="M446.477,356c-2.762,0-5-2.238-5-5V133.738c0-20.809-16.93-37.738-37.738-37.738H108.262     c-20.809,0-37.738,16.929-37.738,37.738V351c0,2.762-2.239,5-5,5s-5-2.238-5-5V133.738C60.524,107.416,81.939,86,108.262,86     h295.477c26.323,0,47.738,21.416,47.738,47.738V351C451.477,353.762,449.238,356,446.477,356z" id="XMLID_625_"/>

</g>

<g id="XMLID_160_">

<path d="M445.091,326H66.909c-2.761,0-5-2.238-5-5s2.239-5,5-5h378.182c2.762,0,5,2.238,5,5     S447.853,326,445.091,326z" id="XMLID_624_"/>

</g>

</g>

</g>

<g id="Layer_1"/>

</svg>