<?xml version="1.0" ?>

<!-- Uploaded to: SVG Repo, www.svgrepo.com, Generator: SVG Repo Mixer Tools -->
<svg fill="#dcdcdc" width="70px" height="30px" viewBox="0 0 512 512" version="1.1" xml:space="preserve" xmlns="http://www.w3.org/2000/svg" xmlns:xlink="http://www.w3.org/1999/xlink">

<g id="_x30_2_x2C__Hyperlink_x2C__link_x2C__web_x2C__web_link_x2C__chain">

<g id="XMLID_858_">

<g id="XMLID_264_">

<path d="M253.45,353.269c-24.932,0-49.254-9.321-67.872-26.579c-0.949-0.88-1.868-1.733-2.781-2.646     L58.942,200.189c-38.941-38.941-38.941-102.304,0-141.247c38.942-38.941,102.304-38.942,141.247,0l123.854,123.854     c0.913,0.914,1.767,1.833,2.591,2.722c1.828,1.971,1.798,5.064-0.103,6.965c-1.899,1.899-4.937,1.988-6.908,0.161     c-21.543-19.971-51.587-28.127-80.367-21.822c-1.665,0.363-3.401-0.144-4.606-1.349l-72.496-72.497     c-17.969-17.97-47.208-17.97-65.177,0c-17.97,17.97-17.97,47.208,0,65.177l123.854,123.854c0.691,0.69,1.461,1.402,2.424,2.238     c18.165,15.768,45.729,14.785,62.753-2.238c17.022-17.023,18.006-44.588,2.237-62.753c-1.721-1.982-1.615-4.958,0.241-6.814     c1.855-1.855,4.831-1.959,6.813-0.239c1.15,0.999,2.084,1.862,2.939,2.718l51.356,51.357c1.205,1.205,1.714,2.94,1.349,4.605     c-4.085,18.646-13.388,35.645-26.902,49.158c-13.515,13.516-30.514,22.818-49.159,26.903     C267.77,352.505,260.584,353.268,253.45,353.269z M129.565,39.732c-23.015,0-46.03,8.76-63.552,26.282     c-35.042,35.043-35.042,92.062,0,127.104l123.854,123.855c0.801,0.801,1.627,1.564,2.451,2.329     c21.602,20.025,51.647,28.179,80.424,21.876c16.774-3.676,32.068-12.046,44.229-24.205c11.52-11.521,19.638-25.853,23.586-41.592     l-32.009-32.009c3.158,17.561-2.077,36.314-15.47,49.707c-20.716,20.719-54.267,21.911-76.379,2.72     c-1.145-0.995-2.079-1.858-2.94-2.72L89.906,169.226c-10.593-10.594-16.427-24.678-16.427-39.66s5.834-29.066,16.428-39.66     c10.593-10.594,24.678-16.428,39.66-16.428s29.066,5.834,39.66,16.427l70.594,70.595c17.439-3.322,35.208-1.907,51.553,3.768     l-98.254-98.254C175.596,48.492,152.581,39.732,129.565,39.732z" id="XMLID_826_"/>

</g>

<g id="XMLID_263_">

<path d="M382.435,482.311c-26.678,0-51.759-10.39-70.623-29.254L187.957,329.203     c-0.913-0.913-1.767-1.833-2.593-2.724c-1.828-1.971-1.797-5.063,0.104-6.964c1.9-1.9,4.938-1.987,6.909-0.16     c21.543,19.971,51.586,28.125,80.366,21.822c1.663-0.366,3.4,0.143,4.605,1.349l72.497,72.497     c17.969,17.969,47.207,17.97,65.178,0c17.969-17.97,17.969-47.208,0-65.178L291.169,225.992     c-0.687-0.687-1.457-1.397-2.425-2.239c-18.165-15.767-45.729-14.784-62.752,2.239c-17.023,17.023-18.006,44.587-2.238,62.753     c1.721,1.982,1.616,4.957-0.241,6.813s-4.832,1.961-6.813,0.239c-1.144-0.994-2.078-1.857-2.939-2.719l-51.358-51.357     c-1.205-1.205-1.713-2.941-1.349-4.606c4.086-18.646,13.389-35.645,26.903-49.159s30.513-22.817,49.159-26.903l0,0     c31.977-7.006,65.362,2.061,89.306,24.257c0.948,0.879,1.868,1.733,2.781,2.646l123.854,123.854     c18.864,18.864,29.254,43.945,29.254,70.623s-10.39,51.759-29.254,70.622C434.193,471.921,409.112,482.311,382.435,482.311z      M220.628,347.732l98.253,98.254c16.976,16.976,39.546,26.324,63.553,26.324s46.576-9.349,63.552-26.324     s26.324-39.545,26.324-63.552s-9.349-46.577-26.324-63.553L322.133,195.028c-0.78-0.78-1.594-1.534-2.454-2.332     c-21.599-20.023-51.642-28.184-80.422-21.874l0,0c-16.774,3.676-32.068,12.046-44.228,24.206     c-11.52,11.519-19.638,25.852-23.586,41.59l32.009,32.009c-3.157-17.561,2.077-36.314,15.469-49.708     c20.718-20.716,54.268-21.911,76.379-2.718c1.151,1,2.085,1.863,2.94,2.719l123.854,123.854c21.868,21.867,21.868,57.45,0,79.318     c-21.868,21.87-57.452,21.868-79.318,0l-70.595-70.595C254.741,354.822,236.974,353.408,220.628,347.732z" id="XMLID_823_"/>

</g>

</g>

</g>

<g id="Layer_1"/>

</svg>