<?xml version="1.0" encoding="utf-8"?>
<!-- Generator: Adobe Illustrator 23.0.3, SVG Export Plug-In . SVG Version: 6.00 Build 0)  -->
<svg version="1.1" id="Layer_1" xmlns="http://www.w3.org/2000/svg" xmlns:xlink="http://www.w3.org/1999/xlink" x="0px" y="0px"
	 viewBox="0 0 48 48" height="32" width="32" style="enable-background:new 0 0 48 48;" xml:space="preserve">
<style type="text/css">
	.st0{fill:#9FA8DA;}
	.st1{fill:#FFE082;}
	.st2{fill:#8CE7F2;}
	.st3{fill:none;stroke:#dcdcdc;stroke-width:3;stroke-linecap:round;stroke-linejoin:round;stroke-miterlimit:10;}
	.st4{fill:none;stroke:#dcdcdc;stroke-width:3;stroke-linecap:round;stroke-linejoin:round;}
	.st5{fill:none;stroke:#dcdcdc;stroke-width:3;}
	.st6{fill:none;stroke:#dcdcdc;stroke-width:3;stroke-linecap:round;}
	.st7{fill:none;stroke:#dcdcdc;stroke-width:3;stroke-miterlimit:10;}
	.st8{fill:none;stroke:#dcdcdc;stroke-width:3;stroke-linecap:round;stroke-miterlimit:10;}
	.st9{fill:none;stroke:#dcdcdc;stroke-width:3;stroke-linejoin:round;stroke-miterlimit:10;}
	.st10{fill:#A5D6A7;}
	.st11{fill:#F48FB1;}
	.st12{fill:#90CAF9;}
	.st13{fill:#FFAB91;}
	.st14{fill:#18193F;}
	.st15{fill:none;stroke:#18193F;stroke-width:3;stroke-linecap:round;stroke-linejoin:round;}
	.st16{fill:none;stroke:#18193F;stroke-width:3;stroke-linecap:round;stroke-linejoin:round;stroke-miterlimit:10;}
	.st17{fill:none;stroke:#18193F;stroke-width:3;}
	.st18{fill:none;stroke:#18193F;stroke-width:3;stroke-linecap:round;}
	.st19{fill:none;stroke:#18193F;stroke-width:3;stroke-miterlimit:10;}
	.st20{fill:none;stroke:#18193F;stroke-width:3;stroke-linecap:round;stroke-miterlimit:10;}
	.st21{fill:none;stroke:#18193F;stroke-width:3;stroke-linejoin:round;stroke-miterlimit:10;}
</style>
<path class="st3" d="M36.1,7.5h2.4c1.1,0,2,0.9,2,2v3c0,1.1-0.9,2-2,2H18"/>
<path class="st3" d="M13,14.5H9.5c-1.1,0-2-0.9-2-2v-3c0-1.1,0.9-2,2-2h21.3"/>
<path class="st3" d="M13.3,27.5H9.5c-1.1,0-2-0.9-2-2v-3c0-1.1,0.9-2,2-2h20"/>
<path class="st3" d="M35,20.5h3.5c1.1,0,2,0.9,2,2v3c0,1.1-0.9,2-2,2h-20"/>
<path class="st3" d="M13.5,40.5h-4c-1.1,0-2-0.9-2-2v-3c0-1.1,0.9-2,2-2h19.6"/>
<path class="st3" d="M34.2,33.5h4.3c1.1,0,2,0.9,2,2v3c0,1.1-0.9,2-2,2h-20"/>
</svg>