<?xml version="1.0" encoding="iso-8859-1"?>
<!-- Uploaded to: SVG Repo, www.svgrepo.com, Generator: SVG Repo Mixer Tools -->
<svg fill="#000000" height="800px" width="800px" version="1.1" id="Capa_1" xmlns="http://www.w3.org/2000/svg" xmlns:xlink="http://www.w3.org/1999/xlink" 
	 viewBox="0 0 490.005 490.005" xml:space="preserve">
<g>
	<path d="M474.201,210.203l-36.6-0.5c-4.5-24.9-14-49.1-28.2-71.1l26.3-25.5c6.4-6.2,6.5-16.4,0.3-22.8l-30.6-31.6
		c-6.2-6.4-16.4-6.5-22.8-0.3l-26.3,25.5c-21.6-14.9-45.5-25-70.2-30.3l0.5-36.6c0.1-8.9-7-16.3-15.9-16.4l-44-0.6
		c-8.9-0.1-16.2,7-16.4,15.9l-0.5,36.6c-24.9,4.5-49.1,14-71.1,28.2l-25.5-26.3c-6.2-6.4-16.4-6.5-22.8-0.3l-31.7,30.6
		c-6.4,6.2-6.5,16.4-0.3,22.8l25.5,26.3c-14.9,21.6-25,45.5-30.3,70.2l-36.6-0.5c-8.9-0.1-16.3,7-16.4,15.9l-0.6,44
		c-0.1,8.9,7,16.3,15.9,16.4l36.6,0.5c4.5,24.9,14,49.1,28.2,71.1l-26.3,25.5c-6.4,6.2-6.5,16.4-0.3,22.8l30.6,31.6
		c6.2,6.4,16.4,6.5,22.8,0.3l26.3-25.5c21.6,14.9,45.5,25,70.2,30.3l-0.5,36.6c-0.1,8.9,7,16.2,15.9,16.4l44,0.6
		c8.9,0.1,16.3-7,16.4-15.9l0.5-36.6c24.9-4.5,49.1-14,71.1-28.2l25.5,26.3c6.2,6.4,16.4,6.5,22.8,0.3l31.6-30.6
		c6.4-6.2,6.5-16.4,0.3-22.8l-25.5-26.3c14.9-21.6,25-45.5,30.3-70.2l36.6,0.5c8.9,0.1,16.3-7,16.4-15.9l0.6-44
		C490.201,217.703,483.101,210.303,474.201,210.203z M365.801,178.003h-36.5c-7.5-24.3-18.4-44.2-29.7-59.9
		C327.801,130.303,351.101,151.503,365.801,178.003z M258.901,112.903c13.4,13.5,30.2,35,41.1,65.2h-41.1V112.903z M258.901,205.803
		h48.7c2.4,12,3.7,25.1,3.7,39.2c0,14.2-1.4,27.2-3.7,39.2h-48.8v-78.4H258.901z M190.301,118.103c-11.3,15.7-22.2,35.6-29.7,59.9
		h-36.5C138.901,151.503,162.201,130.303,190.301,118.103z M106.801,245.003c0-13.6,2-26.8,5.7-39.2h41.6c-2,12.2-3.2,25.2-3.2,39.2
		s1.2,27,3.2,39.2h-41.6C108.801,271.803,106.801,258.603,106.801,245.003z M124.201,312.003h36.5c7.5,24.3,18.4,44.2,29.7,59.9
		C162.201,359.703,138.901,338.503,124.201,312.003z M231.101,377.103c-13.4-13.5-30.2-35-41.1-65.2h41.1V377.103z M231.101,284.203
		h-48.7c-2.4-12-3.7-25.1-3.7-39.2c0-14.2,1.4-27.2,3.7-39.2h48.8v78.4H231.101z M231.101,178.003h-41.2
		c10.9-30.4,27.8-51.9,41.2-65.4V178.003z M258.901,377.403v-65.4h41.2C289.201,342.403,272.301,363.903,258.901,377.403z
		 M299.701,371.903c11.3-15.7,22.2-35.6,29.7-59.9h36.5C351.101,338.503,327.801,359.703,299.701,371.903z M377.501,284.203h-41.6
		c2-12.2,3.2-25.2,3.2-39.2s-1.2-27-3.2-39.2h41.6c3.7,12.4,5.7,25.6,5.7,39.2C383.201,258.603,381.201,271.803,377.501,284.203z"/>
</g>
</svg>